<svg version="1.1" id="Layer_1" xmlns="http://www.w3.org/2000/svg" xmlns:xlink="http://www.w3.org/1999/xlink" x="0px" y="0px"
	 width="100%" viewBox="0 0 1200 1200" enable-background="new 0 0 1200 1200" xml:space="preserve">
<path fill="#000000" opacity="1.000000" stroke="none" 
	d="
M792.000000,1201.000000 
	C528.000000,1201.000000 264.500000,1201.000000 1.000000,1201.000000 
	C1.000000,801.000000 1.000000,401.000000 1.000000,1.000000 
	C401.000000,1.000000 801.000000,1.000000 1201.000000,1.000000 
	C1201.000000,401.000000 1201.000000,801.000000 1201.000000,1201.000000 
	C1064.833374,1201.000000 928.666687,1201.000000 792.000000,1201.000000 
M435.999054,747.504517 
	C436.230530,748.108154 436.517273,748.696899 436.685516,749.317627 
	C443.612701,774.871521 450.505157,800.434753 457.453278,825.982910 
	C465.628845,856.044617 473.864716,886.089905 482.035217,916.153015 
	C482.948120,919.512146 484.413483,921.146606 488.438660,921.115723 
	C516.933594,920.897278 545.430969,921.002808 573.927551,920.988281 
	C575.200500,920.987671 576.473328,920.824707 577.705200,920.740112 
	C577.705200,680.366516 577.705200,440.323425 577.705200,200.321274 
	C545.347717,200.321274 513.286621,200.321274 480.814087,200.321274 
	C480.814087,336.384888 480.814087,472.127716 480.814087,607.842529 
	C478.759918,607.842529 477.120453,607.842529 475.630981,607.842529 
	C469.443756,585.267883 463.319092,562.872681 457.166046,540.485291 
	C451.132690,518.533386 445.023682,496.602203 439.033905,474.638458 
	C432.789398,451.740479 426.714844,428.796082 420.441711,405.906067 
	C414.384613,383.804199 408.097137,361.765442 402.042816,339.662811 
	C395.773315,316.774689 389.733917,293.823578 383.461609,270.936249 
	C377.403503,248.830383 371.014252,226.813477 365.185364,204.648376 
	C364.222565,200.987213 363.084137,199.917480 359.481232,199.932663 
	C330.818481,200.053513 302.154999,199.996307 273.491760,200.011002 
	C272.059509,200.011734 270.627319,200.172348 269.322815,200.250839 
	C269.322815,440.690399 269.322815,680.733582 269.322815,920.652344 
	C302.042786,920.652344 334.437836,920.652344 367.238770,920.652344 
	C367.238770,784.242371 367.238770,648.179321 367.238770,512.357910 
	C370.728455,511.100555 372.198639,512.502380 372.769440,515.430481 
	C373.046051,516.849365 373.529694,518.227234 373.906097,519.627319 
	C379.606476,540.830017 385.290649,562.037048 391.007233,583.235352 
	C396.681671,604.277283 402.356018,625.319336 408.090515,646.344971 
	C413.017670,664.410583 418.004608,682.459961 423.011749,700.503540 
	C427.284424,715.900574 431.623383,731.279297 435.999054,747.504517 
M655.998596,651.500000 
	C655.998596,739.326904 656.037537,827.153870 655.894409,914.980530 
	C655.886475,919.847107 657.273865,921.134094 662.065918,921.104004 
	C694.062744,920.902710 726.061523,920.999451 758.059631,920.999451 
	C759.647583,920.999451 761.235474,920.999451 763.272217,920.999451 
	C763.272217,819.261353 763.272217,718.200928 763.272217,617.186890 
	C772.696106,617.186890 781.661621,617.186890 790.732117,617.186890 
	C792.506104,626.897705 794.308899,636.436951 795.982849,645.998718 
	C799.367859,665.333435 802.604065,684.694458 806.051331,704.017944 
	C808.925293,720.128052 812.071472,736.189392 814.989014,752.291931 
	C817.736084,767.454041 820.321167,782.645569 823.015686,797.817322 
	C825.992920,814.580750 828.933716,831.351257 832.034607,848.091980 
	C836.283447,871.030945 840.869141,893.910217 844.813904,916.900269 
	C845.544373,921.157471 847.478699,921.019348 850.438843,921.016846 
	C882.936951,920.989197 915.434998,921.002380 947.933105,920.988464 
	C949.223877,920.987915 950.514465,920.827515 951.956238,920.731567 
	C951.956238,918.981323 952.194763,917.453369 951.920654,916.023621 
	C947.646545,893.731201 943.298950,871.452942 938.982910,849.168518 
	C934.636353,826.725891 930.315674,804.278259 925.965698,781.836365 
	C921.646606,759.554138 917.305237,737.276306 912.973633,714.996521 
	C908.642273,692.717712 904.380005,670.425171 899.961121,648.163757 
	C895.073792,623.542786 890.015747,598.955750 885.156006,574.329407 
	C884.914368,573.104553 885.438049,571.226624 886.309509,570.364807 
	C892.460754,564.281738 899.622009,559.025452 904.863647,552.266541 
	C911.372620,543.873596 917.704224,534.839355 921.659912,525.087280 
	C927.699158,510.198547 932.633301,494.683350 936.184326,479.014343 
	C939.662231,463.668091 941.312866,447.843842 942.822937,432.138733 
	C943.776367,422.222809 943.128296,412.138489 942.960693,402.133667 
	C942.822205,393.871246 942.721924,385.576569 941.914307,377.364075 
	C940.573364,363.727448 939.187927,350.059509 936.913208,336.557739 
	C931.868774,306.616425 921.612366,278.730469 902.311951,254.767700 
	C891.825745,241.748367 879.612366,230.637650 864.945068,222.486542 
	C836.699890,206.789856 806.059631,200.326859 774.052368,200.070053 
	C736.556946,199.769211 699.057312,199.999924 661.559509,200.000046 
	C659.793396,200.000046 658.027222,200.000031 656.407837,200.000031 
	C656.183716,200.907730 656.040161,201.217514 656.040100,201.527313 
	C656.019836,351.184875 656.009277,500.842438 655.998596,651.500000 
z"/>
<path fill="#FDC83E" opacity="1.000000" stroke="none" 
	d="
M435.966034,747.085327 
	C431.623383,731.279297 427.284424,715.900574 423.011749,700.503540 
	C418.004608,682.459961 413.017670,664.410583 408.090515,646.344971 
	C402.356018,625.319336 396.681671,604.277283 391.007233,583.235352 
	C385.290649,562.037048 379.606476,540.830017 373.906097,519.627319 
	C373.529694,518.227234 373.046051,516.849365 372.769440,515.430481 
	C372.198639,512.502380 370.728455,511.100555 367.238770,512.357910 
	C367.238770,648.179321 367.238770,784.242371 367.238770,920.652344 
	C334.437836,920.652344 302.042786,920.652344 269.322815,920.652344 
	C269.322815,680.733582 269.322815,440.690399 269.322815,200.250839 
	C270.627319,200.172348 272.059509,200.011734 273.491760,200.011002 
	C302.154999,199.996307 330.818481,200.053513 359.481232,199.932663 
	C363.084137,199.917480 364.222565,200.987213 365.185364,204.648376 
	C371.014252,226.813477 377.403503,248.830383 383.461609,270.936249 
	C389.733917,293.823578 395.773315,316.774689 402.042816,339.662811 
	C408.097137,361.765442 414.384613,383.804199 420.441711,405.906067 
	C426.714844,428.796082 432.789398,451.740479 439.033905,474.638458 
	C445.023682,496.602203 451.132690,518.533386 457.166046,540.485291 
	C463.319092,562.872681 469.443756,585.267883 475.630981,607.842529 
	C477.120453,607.842529 478.759918,607.842529 480.814087,607.842529 
	C480.814087,472.127716 480.814087,336.384888 480.814087,200.321274 
	C513.286621,200.321274 545.347717,200.321274 577.705200,200.321274 
	C577.705200,440.323425 577.705200,680.366516 577.705200,920.740112 
	C576.473328,920.824707 575.200500,920.987671 573.927551,920.988281 
	C545.430969,921.002808 516.933594,920.897278 488.438660,921.115723 
	C484.413483,921.146606 482.948120,919.512146 482.035217,916.153015 
	C473.864716,886.089905 465.628845,856.044617 457.453278,825.982910 
	C450.505157,800.434753 443.612701,774.871521 436.685516,749.317627 
	C436.517273,748.696899 436.230530,748.108154 435.966034,747.085327 
z"/>
<path fill="#FDC83E" opacity="1.000000" stroke="none" 
	d="
M655.998596,651.000000 
	C656.009277,500.842438 656.019836,351.184875 656.040100,201.527313 
	C656.040161,201.217514 656.183716,200.907730 656.407837,200.000031 
	C658.027222,200.000031 659.793396,200.000046 661.559509,200.000046 
	C699.057312,199.999924 736.556946,199.769211 774.052368,200.070053 
	C806.059631,200.326859 836.699890,206.789856 864.945068,222.486542 
	C879.612366,230.637650 891.825745,241.748367 902.311951,254.767700 
	C921.612366,278.730469 931.868774,306.616425 936.913208,336.557739 
	C939.187927,350.059509 940.573364,363.727448 941.914307,377.364075 
	C942.721924,385.576569 942.822205,393.871246 942.960693,402.133667 
	C943.128296,412.138489 943.776367,422.222809 942.822937,432.138733 
	C941.312866,447.843842 939.662231,463.668091 936.184326,479.014343 
	C932.633301,494.683350 927.699158,510.198547 921.659912,525.087280 
	C917.704224,534.839355 911.372620,543.873596 904.863647,552.266541 
	C899.622009,559.025452 892.460754,564.281738 886.309509,570.364807 
	C885.438049,571.226624 884.914368,573.104553 885.156006,574.329407 
	C890.015747,598.955750 895.073792,623.542786 899.961121,648.163757 
	C904.380005,670.425171 908.642273,692.717712 912.973633,714.996521 
	C917.305237,737.276306 921.646606,759.554138 925.965698,781.836365 
	C930.315674,804.278259 934.636353,826.725891 938.982910,849.168518 
	C943.298950,871.452942 947.646545,893.731201 951.920654,916.023621 
	C952.194763,917.453369 951.956238,918.981323 951.956238,920.731567 
	C950.514465,920.827515 949.223877,920.987915 947.933105,920.988464 
	C915.434998,921.002380 882.936951,920.989197 850.438843,921.016846 
	C847.478699,921.019348 845.544373,921.157471 844.813904,916.900269 
	C840.869141,893.910217 836.283447,871.030945 832.034607,848.091980 
	C828.933716,831.351257 825.992920,814.580750 823.015686,797.817322 
	C820.321167,782.645569 817.736084,767.454041 814.989014,752.291931 
	C812.071472,736.189392 808.925293,720.128052 806.051331,704.017944 
	C802.604065,684.694458 799.367859,665.333435 795.982849,645.998718 
	C794.308899,636.436951 792.506104,626.897705 790.732117,617.186890 
	C781.661621,617.186890 772.696106,617.186890 763.272217,617.186890 
	C763.272217,718.200928 763.272217,819.261353 763.272217,920.999451 
	C761.235474,920.999451 759.647583,920.999451 758.059631,920.999451 
	C726.061523,920.999451 694.062744,920.902710 662.065918,921.104004 
	C657.273865,921.134094 655.886475,919.847107 655.894409,914.980530 
	C656.037537,827.153870 655.998596,739.326904 655.998596,651.000000 
M776.468018,306.000549 
	C772.123901,305.595947 767.779724,305.191345 763.266235,304.770966 
	C763.266235,376.217163 763.266235,446.943939 763.266235,518.648987 
	C770.577271,517.730652 777.611694,517.338196 784.426147,515.901855 
	C807.627686,511.011597 822.393250,496.234222 830.944031,474.745270 
	C838.529480,455.682098 840.426758,435.497345 840.772583,415.304749 
	C840.990784,402.560272 839.283508,389.748230 837.929382,377.020813 
	C836.449524,363.110474 832.372803,349.914978 825.854492,337.449371 
	C815.575806,317.792480 798.774902,308.411530 776.468018,306.000549 
z"/>
<path fill="#000000" opacity="1.000000" stroke="none" 
	d="
M776.924500,306.000549 
	C798.774902,308.411530 815.575806,317.792480 825.854492,337.449371 
	C832.372803,349.914978 836.449524,363.110474 837.929382,377.020813 
	C839.283508,389.748230 840.990784,402.560272 840.772583,415.304749 
	C840.426758,435.497345 838.529480,455.682098 830.944031,474.745270 
	C822.393250,496.234222 807.627686,511.011597 784.426147,515.901855 
	C777.611694,517.338196 770.577271,517.730652 763.266235,518.648987 
	C763.266235,446.943939 763.266235,376.217163 763.266235,304.770966 
	C767.779724,305.191345 772.123901,305.595947 776.924500,306.000549 
z"/>
</svg>